<svg xmlns="http://www.w3.org/2000/svg" viewBox="0 0 640 400" width="1280" height="800"><rect x="0.5" y="0.5" width="639" height="399" rx="14" fill="#0F131B" stroke="#232A36"></rect><path d="M14 0.5 H626 A13.5 13.5 0 0 1 639.5 14 V36 H0.5 V14 A13.5 13.5 0 0 1 14 0.5 Z" fill="#151A24"></path><circle cx="22" cy="18" r="5" fill="#3A4556"></circle><circle cx="40" cy="18" r="5" fill="#3A4556"></circle><circle cx="58" cy="18" r="5" fill="#3A4556"></circle><rect x="220" y="10" width="200" height="16" rx="8" fill="#0F131B" ></rect><rect x="0.5" y="36" width="130" height="363.5" rx="0" fill="#121722" ></rect><g transform="translate(30 62) scale(0.07)"><path d="M0,-114 L17,-17 L114,0 L17,17 L0,108 L-17,17 L-114,0 L-17,-17 Z" fill="#5B9BF0"></path></g><rect x="44" y="57" width="60" height="10" rx="5" fill="#3A4556" ></rect><rect x="12" y="83" width="106" height="24" rx="6" fill="rgba(0,82,180,0.22)" ></rect><rect x="22" y="90" width="78" height="10" rx="5" fill="#5B9BF0" ></rect><rect x="22" y="120" width="70" height="10" rx="5" fill="#232A36" ></rect><rect x="22" y="150" width="70" height="10" rx="5" fill="#232A36" ></rect><rect x="22" y="180" width="70" height="10" rx="5" fill="#232A36" ></rect><rect x="22" y="210" width="70" height="10" rx="5" fill="#232A36" ></rect><rect x="22" y="240" width="70" height="10" rx="5" fill="#232A36" ></rect><rect x="150" y="56" width="150" height="14" rx="7" fill="#3A4556" ></rect><rect x="150" y="78" width="96" height="8" rx="4" fill="#232A36" ></rect><rect x="526" y="52" width="94" height="26" rx="7" fill="#0052B4" ></rect><rect x="150" y="104" width="108" height="56" rx="9" fill="#151A24" ></rect><rect x="162" y="116" width="44" height="7" rx="3.5" fill="#3A4556" ></rect><rect x="162" y="132" width="56" height="14" rx="5" fill="#F0F4F8" opacity="0.88"></rect><rect x="268" y="104" width="108" height="56" rx="9" fill="#151A24" ></rect><rect x="280" y="116" width="44" height="7" rx="3.5" fill="#3A4556" ></rect><rect x="280" y="132" width="50" height="14" rx="5" fill="#F0F4F8" opacity="0.88"></rect><rect x="386" y="104" width="108" height="56" rx="9" fill="#151A24" ></rect><rect x="398" y="116" width="44" height="7" rx="3.5" fill="#3A4556" ></rect><rect x="398" y="132" width="44" height="14" rx="5" fill="#F0F4F8" opacity="0.88"></rect><rect x="504" y="104" width="108" height="56" rx="9" fill="#151A24" ></rect><rect x="516" y="116" width="44" height="7" rx="3.5" fill="#3A4556" ></rect><rect x="516" y="132" width="38" height="14" rx="5" fill="#F0F4F8" opacity="0.88"></rect><rect x="150" y="174" width="470" height="206" rx="10" fill="#151A24" ></rect><rect x="166" y="194" width="34" height="30" rx="6" fill="#232A36" ></rect><rect x="212" y="199" width="120" height="9" rx="4.5" fill="#3A4556" ></rect><rect x="212" y="213" width="70" height="7" rx="3.5" fill="#232A36" ></rect><rect x="380" y="201" width="90" height="7" rx="3.5" fill="#232A36" ></rect><rect x="520" y="197" width="82" height="22" rx="11" fill="rgba(91,155,240,0.28)" ></rect><rect x="536" y="205" width="50" height="6" rx="3" fill="#8FB8FF" ></rect><line x1="166" y1="233" x2="604" y2="233" stroke="#232A36"></line><rect x="166" y="240" width="34" height="30" rx="6" fill="#232A36" ></rect><rect x="212" y="245" width="110" height="9" rx="4.5" fill="#3A4556" ></rect><rect x="212" y="259" width="70" height="7" rx="3.5" fill="#232A36" ></rect><rect x="380" y="247" width="90" height="7" rx="3.5" fill="#232A36" ></rect><rect x="520" y="243" width="82" height="22" rx="11" fill="rgba(232,199,154,0.22)" ></rect><rect x="536" y="251" width="50" height="6" rx="3" fill="#E8C79A" ></rect><line x1="166" y1="279" x2="604" y2="279" stroke="#232A36"></line><rect x="166" y="286" width="34" height="30" rx="6" fill="#232A36" ></rect><rect x="212" y="291" width="100" height="9" rx="4.5" fill="#3A4556" ></rect><rect x="212" y="305" width="70" height="7" rx="3.5" fill="#232A36" ></rect><rect x="380" y="293" width="90" height="7" rx="3.5" fill="#232A36" ></rect><rect x="520" y="289" width="82" height="22" rx="11" fill="rgba(91,155,240,0.28)" ></rect><rect x="536" y="297" width="50" height="6" rx="3" fill="#8FB8FF" ></rect><line x1="166" y1="325" x2="604" y2="325" stroke="#232A36"></line><rect x="166" y="332" width="34" height="30" rx="6" fill="#232A36" ></rect><rect x="212" y="337" width="90" height="9" rx="4.5" fill="#3A4556" ></rect><rect x="212" y="351" width="70" height="7" rx="3.5" fill="#232A36" ></rect><rect x="380" y="339" width="90" height="7" rx="3.5" fill="#232A36" ></rect><rect x="520" y="335" width="82" height="22" rx="11" fill="rgba(58,69,86,0.6)" ></rect><rect x="536" y="343" width="50" height="6" rx="3" fill="#9AA4B2" ></rect></svg>